<svg xmlns="http://www.w3.org/2000/svg" viewBox="0 0 64 64">
  <defs>
  <linearGradient id="teal-1" x1="0" y1="0" x2="0.6" y2="1"><stop offset="0%" stop-color="#d4f4f2"/><stop offset="100%" stop-color="#a2ddd9"/></linearGradient>
  <linearGradient id="teal-2" x1="0" y1="0" x2="0.6" y2="1"><stop offset="0%" stop-color="#5fc9c4"/><stop offset="100%" stop-color="#34998f"/></linearGradient>
  <linearGradient id="teal-3" x1="0.2" y1="0" x2="1" y2="1"><stop offset="0%" stop-color="#1f8b86"/><stop offset="100%" stop-color="#12615f"/></linearGradient>
  <linearGradient id="teal-4" x1="0.2" y1="0" x2="1" y2="1"><stop offset="0%" stop-color="#0f4d4c"/><stop offset="100%" stop-color="#07302f"/></linearGradient></defs>
  <polygon points="25.05,4.98 44.95,4.98 59.02,19.05" fill="url(#teal-1)" transform="translate(43.01 9.67) scale(0.93) translate(-43.01 -9.67)"/>
  <polygon points="56.02,22.05 56.02,41.95 41.95,56.02 22.05,7.98" fill="url(#teal-2)" transform="translate(44.01 32) scale(0.93) translate(-44.01 -32)"/>
  <polygon points="41.95,56.02 22.05,56.02 7.98,41.95 22.05,7.98" fill="url(#teal-3)" transform="translate(23.51 40.49) scale(0.93) translate(-23.51 -40.49)"/>
  <polygon points="7.98,41.95 7.98,22.05 22.05,7.98" fill="url(#teal-4)" transform="translate(12.67 23.99) scale(0.93) translate(-12.67 -23.99)"/>
</svg>
