<svg xmlns="http://www.w3.org/2000/svg" viewBox="0 0 64 64">
  <defs>
  <linearGradient id="arena-bright" x1="0" y1="0" x2="0.6" y2="1">
    <stop offset="0%" stop-color="#f7e8bb"/><stop offset="100%" stop-color="#d9c184"/>
  </linearGradient>
  <linearGradient id="arena-warm" x1="0" y1="0" x2="0.7" y2="1">
    <stop offset="0%" stop-color="#e4cf94"/><stop offset="100%" stop-color="#c2a45f"/>
  </linearGradient>
  <linearGradient id="arena-mid" x1="0.2" y1="0" x2="1" y2="1">
    <stop offset="0%" stop-color="#c9a659"/><stop offset="100%" stop-color="#a8813a"/>
  </linearGradient>
  <linearGradient id="arena-deep" x1="0.2" y1="0" x2="1" y2="1">
    <stop offset="0%" stop-color="#a87c33"/><stop offset="100%" stop-color="#7d551d"/>
  </linearGradient></defs>
  <polygon points="22,12 42,12 46,25 18,25" fill="url(#arena-bright)" transform="translate(32 18.5) scale(0.93) translate(-32 -18.5)"/>
  <polygon points="22,12 6,25 18,25" fill="url(#arena-warm)" transform="translate(15.33 20.67) scale(0.93) translate(-15.33 -20.67)"/>
  <polygon points="42,12 58,25 46,25" fill="url(#arena-mid)" transform="translate(48.67 20.67) scale(0.93) translate(-48.67 -20.67)"/>
  <polygon points="6,25 19,25 32,58" fill="url(#arena-warm)" transform="translate(19 36) scale(0.93) translate(-19 -36)"/>
  <polygon points="19,25 32,25 32,58" fill="url(#arena-bright)" transform="translate(27.67 36) scale(0.93) translate(-27.67 -36)"/>
  <polygon points="32,25 45,25 32,58" fill="url(#arena-mid)" transform="translate(36.33 36) scale(0.93) translate(-36.33 -36)"/>
  <polygon points="45,25 58,25 32,58" fill="url(#arena-deep)" transform="translate(45 36) scale(0.93) translate(-45 -36)"/>
</svg>
