<svg xmlns="http://www.w3.org/2000/svg" viewBox="0 0 64 64">
  <defs>
  <linearGradient id="petrol-1" x1="0" y1="0" x2="0.6" y2="1"><stop offset="0%" stop-color="#cfe6e8"/><stop offset="100%" stop-color="#9cc4c9"/></linearGradient>
  <linearGradient id="petrol-2" x1="0" y1="0" x2="0.6" y2="1"><stop offset="0%" stop-color="#4d9fa8"/><stop offset="100%" stop-color="#2b7580"/></linearGradient>
  <linearGradient id="petrol-3" x1="0.2" y1="0" x2="1" y2="1"><stop offset="0%" stop-color="#175f6b"/><stop offset="100%" stop-color="#0c414b"/></linearGradient>
  <linearGradient id="petrol-4" x1="0.2" y1="0" x2="1" y2="1"><stop offset="0%" stop-color="#093139"/><stop offset="100%" stop-color="#041d22"/></linearGradient></defs>
  <polygon points="23.55,6.48 43.45,6.48 57.52,20.55" fill="url(#petrol-1)" transform="translate(41.51 11.17) scale(0.93) translate(-41.51 -11.17)"/>
  <polygon points="23.55,6.48 57.52,20.55 57.52,40.45 43.45,54.52" fill="url(#petrol-2)" transform="translate(45.51 30.5) scale(0.93) translate(-45.51 -30.5)"/>
  <polygon points="40.45,57.52 20.55,57.52 6.48,43.45" fill="url(#petrol-3)" transform="translate(22.49 52.83) scale(0.93) translate(-22.49 -52.83)"/>
  <polygon points="40.45,57.52 6.48,43.45 6.48,23.55 20.55,9.48" fill="url(#petrol-4)" transform="translate(18.49 33.5) scale(0.93) translate(-18.49 -33.5)"/>
</svg>
