<svg xmlns="http://www.w3.org/2000/svg" viewBox="0 0 64 64">
  <defs>
  <linearGradient id="teal-1" x1="0" y1="0" x2="0.6" y2="1"><stop offset="0%" stop-color="#d4f4f2"/><stop offset="100%" stop-color="#a2ddd9"/></linearGradient>
  <linearGradient id="teal-2" x1="0" y1="0" x2="0.6" y2="1"><stop offset="0%" stop-color="#5fc9c4"/><stop offset="100%" stop-color="#34998f"/></linearGradient>
  <linearGradient id="teal-3" x1="0.2" y1="0" x2="1" y2="1"><stop offset="0%" stop-color="#1f8b86"/><stop offset="100%" stop-color="#12615f"/></linearGradient>
  <linearGradient id="teal-4" x1="0.2" y1="0" x2="1" y2="1"><stop offset="0%" stop-color="#0f4d4c"/><stop offset="100%" stop-color="#07302f"/></linearGradient></defs>
  <polygon points="32,4 40,22 24,40 6,32" fill="url(#teal-1)" transform="translate(25.5 24.5) scale(0.93) translate(-25.5 -24.5)"/>
  <polygon points="6,32 24,40 32,60" fill="url(#teal-2)" transform="translate(20.67 44) scale(0.93) translate(-20.67 -44)"/>
  <polygon points="32,4 58,32 40,22" fill="url(#teal-3)" transform="translate(43.33 19.33) scale(0.93) translate(-43.33 -19.33)"/>
  <polygon points="40,22 58,32 32,60 24,40" fill="url(#teal-4)" transform="translate(38.5 38.5) scale(0.93) translate(-38.5 -38.5)"/>
</svg>
