<svg xmlns="http://www.w3.org/2000/svg" viewBox="0 0 64 64">
  <defs>
  <linearGradient id="sapphire-1" x1="0" y1="0" x2="0.6" y2="1"><stop offset="0%" stop-color="#d9e9ff"/><stop offset="100%" stop-color="#a9c8f0"/></linearGradient>
  <linearGradient id="sapphire-2" x1="0" y1="0" x2="0.6" y2="1"><stop offset="0%" stop-color="#6aa6f0"/><stop offset="100%" stop-color="#3f74c8"/></linearGradient>
  <linearGradient id="sapphire-3" x1="0.2" y1="0" x2="1" y2="1"><stop offset="0%" stop-color="#2d5cb5"/><stop offset="100%" stop-color="#1a3a84"/></linearGradient>
  <linearGradient id="sapphire-4" x1="0.2" y1="0" x2="1" y2="1"><stop offset="0%" stop-color="#17306b"/><stop offset="100%" stop-color="#0c1a3d"/></linearGradient></defs>
  <polygon points="32,4 40,22 24,40 6,32" fill="url(#sapphire-1)" transform="translate(25.5 24.5) scale(0.93) translate(-25.5 -24.5)"/>
  <polygon points="6,32 24,40 32,60" fill="url(#sapphire-2)" transform="translate(20.67 44) scale(0.93) translate(-20.67 -44)"/>
  <polygon points="32,4 58,32 40,22" fill="url(#sapphire-3)" transform="translate(43.33 19.33) scale(0.93) translate(-43.33 -19.33)"/>
  <polygon points="40,22 58,32 32,60 24,40" fill="url(#sapphire-4)" transform="translate(38.5 38.5) scale(0.93) translate(-38.5 -38.5)"/>
</svg>
