<svg xmlns="http://www.w3.org/2000/svg" viewBox="0 0 64 64">
  <defs>
  <linearGradient id="teal-1" x1="0" y1="0" x2="0.6" y2="1"><stop offset="0%" stop-color="#d4f4f2"/><stop offset="100%" stop-color="#a2ddd9"/></linearGradient>
  <linearGradient id="teal-2" x1="0" y1="0" x2="0.6" y2="1"><stop offset="0%" stop-color="#5fc9c4"/><stop offset="100%" stop-color="#34998f"/></linearGradient>
  <linearGradient id="teal-3" x1="0.2" y1="0" x2="1" y2="1"><stop offset="0%" stop-color="#1f8b86"/><stop offset="100%" stop-color="#12615f"/></linearGradient>
  <linearGradient id="teal-4" x1="0.2" y1="0" x2="1" y2="1"><stop offset="0%" stop-color="#0f4d4c"/><stop offset="100%" stop-color="#07302f"/></linearGradient></defs>
  <polygon points="19.99,8.94 39.82,7.2 55.06,19.99" fill="url(#teal-1)" transform="translate(38.29 12.05) scale(0.93) translate(-38.29 -12.05)"/>
  <polygon points="19.99,8.94 55.06,19.99 56.8,39.82 44.01,55.06" fill="url(#teal-2)" transform="translate(43.96 30.95) scale(0.93) translate(-43.96 -30.95)"/>
  <polygon points="39.82,56.8 19.99,55.06 7.2,39.82" fill="url(#teal-3)" transform="translate(22.34 50.56) scale(0.93) translate(-22.34 -50.56)"/>
  <polygon points="39.82,56.8 7.2,39.82 8.94,19.99 24.18,7.2" fill="url(#teal-4)" transform="translate(20.04 30.95) scale(0.93) translate(-20.04 -30.95)"/>
</svg>
